# xmcd
#
# Track frame offsets:
#	187
#	14142
#	28102
#	45447
#	60715
#	71950
#	86390
#	97397
#	111140
#	127692
#
# Disc length: 1865 seconds
#
# Revision: 2
# Processed by: cddbd v1.5.2PL0 Copyright (c) Steve Scherf et al.
# Submitted via: audiograbber 1.83.01
#
DISCID=8807470a
DTITLE=Moe Bandy - You Haven't Heard The Last Of Me
DYEAR=1987
DGENRE=Country
TTITLE0=One Man Band
TTITLE1=I Forgot That I Don't Live Here Anymore
TTITLE2=The Sunny Side Of You
TTITLE3=The Times I Tried To Love You
TTITLE4=You Can't Straddle The Fence Anymore
TTITLE5=Till I'm Too Old To Die Young
TTITLE6=Ridin' Her Memory Down
TTITLE7=Between Us
TTITLE8=You Haven't Heard The Last Of Me
TTITLE9=Rodeo Song
EXTD=
EXTT0=
EXTT1=
EXTT2=
EXTT3=
EXTT4=
EXTT5=
EXTT6=
EXTT7=
EXTT8=
EXTT9=
PLAYORDER=
